<?xml version="1.0" encoding="utf-8"?>
<!-- Generator: Adobe Illustrator 21.0.0, SVG Export Plug-In . SVG Version: 6.00 Build 0)  -->
<svg version="1.1" id="Layer_1" xmlns="http://www.w3.org/2000/svg" xmlns:xlink="http://www.w3.org/1999/xlink" x="0px" y="0px"
	 viewBox="0 0 330.2 330.2" style="enable-background:new 0 0 330.2 330.2;" xml:space="preserve">
<path style="fill:#FFFFFF;" d="M263.2,127.8V98.2c0-54.4-44.2-98.6-98.6-98.6C110.2-0.4,66,43.8,66,98.2v30
	c-16.9,7.7-28.7,24.7-28.7,44.5v108.9c0,27,21.9,48.9,48.9,48.9H244c27,0,48.9-21.9,48.9-48.9V172.8
	C292.9,152.6,280.7,135.2,263.2,127.8z M177.2,231.1v35h-23.9v-35c-5.1-3.7-8.4-9.7-8.4-16.4c0-11.2,9.1-20.3,20.3-20.3
	s20.3,9.1,20.3,20.3C185.5,221.4,182.2,227.4,177.2,231.1z M226.1,123.9H103.1V98.2c0-33.9,27.6-61.5,61.5-61.5s61.5,27.6,61.5,61.5
	V123.9z"/>
</svg>
