<svg xmlns="http://www.w3.org/2000/svg" viewBox="0 0 252.87 290.07"><defs><style>.cls-1{fill:#fff;}.cls-2,.cls-3,.cls-4{fill:none;stroke:#fff;stroke-miterlimit:10;}.cls-2{stroke-width:8px;}.cls-3{stroke-linecap:round;}.cls-3,.cls-4{stroke-width:5px;}.cls-4{stroke-linecap:square;}</style></defs><title>logo-cloud</title><g id="Layer_2" data-name="Layer 2"><g id="Layer_1-2" data-name="Layer 1"><path class="cls-1" d="M139.12,232.63H117.88a5.89,5.89,0,0,0-5.88,5.88v45.68a5.89,5.89,0,0,0,5.88,5.88h21.24a5.89,5.89,0,0,0,5.88-5.88V238.51A5.89,5.89,0,0,0,139.12,232.63ZM128.5,287.93a2.14,2.14,0,1,1,2.14-2.14A2.14,2.14,0,0,1,128.5,287.93Zm12.83-5.81H115.67V240h25.67Z"/><rect class="cls-2" x="4" y="217.85" width="72" height="50" rx="3.75" ry="3.75"/><line class="cls-2" x1="40" y1="267.85" x2="40" y2="282.85"/><line class="cls-3" x1="26" y1="282.85" x2="54" y2="282.85"/><path class="cls-4" d="M128,165.85h88m-88-17v76m-88-43h88m-88,24v-24m176,8v-24"/><path class="cls-1" d="M243,245.11H188.83a6.12,6.12,0,0,1-6.12-6.12V203.47a6.12,6.12,0,0,1,6.12-6.12H243a6.12,6.12,0,0,1,6.12,6.12V239A6.12,6.12,0,0,1,243,245.11Zm-54.17-41.94a.3.3,0,0,0-.29.29V239a.3.3,0,0,0,.29.29H243a.3.3,0,0,0,.29-.29V203.47a.3.3,0,0,0-.29-.29Z"/><path class="cls-1" d="M252.37,252.53l-4.58-5.24a2,2,0,0,0-1.51-.68H185.57a2,2,0,0,0-1.67.9l-3.44,5.24a2,2,0,0,0,1.67,3.1h68.73a2,2,0,0,0,1.51-3.32Zm-27.13,1.82H208.93v-1h16.31Z"/><path class="cls-1" d="M213.42,63.92c0-.16,0-.33,0-.49A63.42,63.42,0,0,0,93.12,35.37,38.82,38.82,0,0,0,32.23,66.9a42.86,42.86,0,0,0-25.9,39.24h0A42.84,42.84,0,0,0,49,148.85H207a42.84,42.84,0,0,0,42.71-42.71h0A42.87,42.87,0,0,0,213.42,63.92ZM154.16,97.08l-.16-.15-34.21-.87L151.68,126a43.55,43.55,0,0,1-16.5,6.28L95.9,93l6-13.73,34.38,1-32-30.08a43.55,43.55,0,0,1,16.5-6.28L160,83.21Z"/></g></g></svg>