<?xml version="1.0" encoding="utf-8"?>
<!-- Generator: Adobe Illustrator 21.0.0, SVG Export Plug-In . SVG Version: 6.00 Build 0)  -->
<svg version="1.1" id="Layer_1" xmlns="http://www.w3.org/2000/svg" xmlns:xlink="http://www.w3.org/1999/xlink" x="0px" y="0px"
	 viewBox="0 0 480 468.1" style="enable-background:new 0 0 480 468.1;" xml:space="preserve">
<g>
	<path style="fill-rule:evenodd;clip-rule:evenodd;fill:#FFFFFF;" d="M240,0C107.5,0,0,107.4,0,240c0,106,68.8,196,164.1,227.7
		c12,2.2,16.4-5.2,16.4-11.5c0-5.7-0.2-24.6-0.3-44.7c-66.8,14.5-80.9-28.3-80.9-28.3c-10.9-27.7-26.6-35.1-26.6-35.1
		c-21.8-14.9,1.6-14.6,1.6-14.6c24.1,1.7,36.8,24.7,36.8,24.7c21.4,36.7,56.1,26.1,69.8,19.9c2.2-15.5,8.4-26.1,15.2-32.1
		C142.9,340,86.9,319.4,86.9,227.5c0-26.2,9.4-47.6,24.7-64.4c-2.5-6-10.7-30.5,2.3-63.5c0,0,20.2-6.4,66,24.6
		c19.1-5.3,39.7-8,60.1-8.1c20.4,0.1,40.9,2.8,60.1,8.1c45.8-31.1,65.9-24.6,65.9-24.6c13.1,33.1,4.8,57.5,2.4,63.5
		c15.4,16.8,24.7,38.2,24.7,64.4c0,92.2-56.1,112.5-109.6,118.4c8.6,7.4,16.3,22.1,16.3,44.4c0,32.1-0.3,58-0.3,65.9
		c0,6.4,4.3,13.9,16.5,11.5C411.3,435.9,480,346,480,240C480,107.4,372.5,0,240,0z"/>
	<path style="fill:#FFFFFF;" d="M90.9,344.6c-0.5,1.2-2.4,1.6-4.1,0.7c-1.7-0.8-2.7-2.4-2.2-3.6c0.5-1.2,2.4-1.6,4.1-0.7
		C90.5,341.7,91.5,343.4,90.9,344.6L90.9,344.6z M87.9,342.4"/>
	<path style="fill:#FFFFFF;" d="M100.6,355.4c-1.1,1.1-3.4,0.6-4.9-1.1c-1.6-1.7-1.9-3.9-0.7-5c1.2-1.1,3.3-0.6,4.9,1.1
		C101.5,352.1,101.8,354.4,100.6,355.4L100.6,355.4z M98.3,353"/>
	<path style="fill:#FFFFFF;" d="M110.1,369.3c-1.5,1-3.9,0.1-5.4-2.1c-1.5-2.1-1.5-4.7,0-5.7c1.5-1,3.9-0.1,5.4,2
		C111.6,365.6,111.6,368.2,110.1,369.3L110.1,369.3z M110.1,369.3"/>
	<path style="fill:#FFFFFF;" d="M123,382.6c-1.3,1.5-4.1,1.1-6.2-0.9c-2.1-1.9-2.7-4.7-1.4-6.1c1.3-1.5,4.2-1,6.2,0.9
		C123.8,378.4,124.4,381.2,123,382.6L123,382.6z M123,382.6"/>
	<path style="fill:#FFFFFF;" d="M140.9,390.4c-0.6,1.9-3.3,2.7-6,1.9c-2.7-0.8-4.5-3-3.9-4.9c0.6-1.9,3.3-2.8,6-1.9
		C139.7,386.3,141.5,388.4,140.9,390.4L140.9,390.4z M140.9,390.4"/>
	<path style="fill:#FFFFFF;" d="M160.6,391.8c0.1,2-2.2,3.6-5.1,3.7c-2.9,0.1-5.2-1.5-5.2-3.5c0-2,2.3-3.6,5.1-3.7
		C158.2,388.2,160.6,389.8,160.6,391.8L160.6,391.8z M160.6,391.8"/>
	<path style="fill:#FFFFFF;" d="M178.9,388.7c0.3,1.9-1.6,3.9-4.5,4.4c-2.8,0.5-5.4-0.7-5.7-2.6c-0.3-2,1.7-4,4.5-4.5
		C175.9,385.6,178.5,386.7,178.9,388.7L178.9,388.7z M178.9,388.7"/>
</g>
</svg>
