<?xml version="1.0" encoding="utf-8"?>
<!-- Generator: Adobe Illustrator 21.0.0, SVG Export Plug-In . SVG Version: 6.00 Build 0)  -->
<svg version="1.1" id="Layer_1" xmlns="http://www.w3.org/2000/svg" xmlns:xlink="http://www.w3.org/1999/xlink" x="0px" y="0px"
	 viewBox="0 0 480 480" style="enable-background:new 0 0 480 480;" xml:space="preserve">
<circle style="fill:#FFFFFF;" cx="181.1" cy="156.2" r="24.9"/>
<circle style="fill:#FFFFFF;" cx="299.8" cy="156.2" r="24.9"/>
<path style="fill:none;stroke:#FFFFFF;stroke-width:30;stroke-linecap:round;stroke-linejoin:round;stroke-miterlimit:10;" d="
	M118,231.3c0,64.9,54.6,117.4,122,117.4s122-52.6,122-117.4"/>
<g>
	<path style="fill:#FFFFFF;" d="M240,30c28.4,0,55.9,5.5,81.7,16.5c25,10.6,47.5,25.7,66.8,45s34.4,41.8,45,66.8
		c10.9,25.9,16.5,53.4,16.5,81.7s-5.5,55.9-16.5,81.7c-10.6,25-25.7,47.5-45,66.8s-41.8,34.4-66.8,45C295.9,444.5,268.4,450,240,450
		s-55.9-5.5-81.7-16.5c-25-10.6-47.5-25.7-66.8-45s-34.4-41.8-45-66.8C35.5,295.9,30,268.4,30,240s5.5-55.9,16.5-81.7
		c10.6-25,25.7-47.5,45-66.8s41.8-34.4,66.8-45C184.1,35.5,211.6,30,240,30 M240,0C107.5,0,0,107.5,0,240s107.5,240,240,240
		s240-107.5,240-240S372.5,0,240,0L240,0z"/>
</g>
</svg>
